# Blender 4.4.0
# www.blender.org
o Plane
v 0.000000 1.103553 -2.000000
v 0.353553 0.750000 -2.000000
v -0.353553 0.750000 -2.000000
v -0.707107 0.707107 -2.000000
v 0.707107 0.707107 -2.000000
v 0.707107 -0.707107 -2.000000
v -0.707107 -0.707107 -2.000000
v 0.000000 -0.000000 0.000000
vn -0.0000 -0.0000 -1.0000
vn -0.0000 0.9428 0.3333
vn 0.9428 -0.0000 0.3333
vn -0.0000 -0.9428 0.3333
vn -0.9428 -0.0000 0.3333
vt 0.000000 0.000000
vt 0.250000 0.490000
vt 0.250000 0.250000
vt 0.490000 0.250000
vt 0.250000 0.010000
vt 0.750000 0.490000
vt 0.990000 0.250000
vt 0.750000 0.010000
vt 0.510000 0.250000
vt 0.010000 0.250000
s 0
f 1/1/1 2/1/1 3/1/1
s 1
f 4/2/2 8/3/2 5/4/2
f 5/4/3 8/3/3 6/5/3
f 4/6/1 5/7/1 6/8/1 7/9/1
f 6/5/4 8/3/4 7/10/4
f 7/10/5 8/3/5 4/2/5
